<?xml version="1.0" encoding="UTF-8" standalone="no"?>
<!DOCTYPE svg PUBLIC "-//W3C//DTD SVG 1.1//EN" "http://www.w3.org/Graphics/SVG/1.1/DTD/svg11.dtd">
<svg xmlns="http://www.w3.org/2000/svg" version="1.1" viewBox="0 0 150 150">
<g stroke-width="2.0" fill="none" stroke-linecap="butt">
<path stroke="#ffabab" vector-effect="non-scaling-stroke" d="
  M 43.2233 35.4329
  C 43.22 35.28 43.10 35.16 42.9529 35.1634
  L 12.4529 35.2166
  C 12.30 35.22 12.18 35.34 12.1834 35.4871
  L 12.2367 66.0071
  C 12.24 66.16 12.36 66.28 12.5071 66.2766
  L 43.0071 66.2234
  C 43.16 66.22 43.28 66.10 43.2766 65.9529
  L 43.2233 35.4329"
/>
<path stroke="#ffabab" vector-effect="non-scaling-stroke" d="
  M 138.26 36.14
  C 138.26 35.92 138.09 35.75 137.87 35.75
  L 50.39 35.75
  C 50.17 35.75 50.00 35.92 50.00 36.14
  L 50.00 65.00
  C 50.00 65.22 50.17 65.39 50.39 65.39
  L 137.87 65.39
  C 138.09 65.39 138.26 65.22 138.26 65.00
  L 138.26 36.14"
/>
<path stroke="#ffabab" vector-effect="non-scaling-stroke" d="
  M 36.5930 98.0268
  C 38.98 98.11 41.00 96.02 41.0971 93.3587
  C 41.19 90.69 39.34 88.46 36.9470 88.3732
  C 34.56 88.29 32.54 90.38 32.4429 93.0413
  C 32.35 95.71 34.20 97.94 36.5930 98.0268"
/>
<path stroke="#ffabab" vector-effect="non-scaling-stroke" d="
  M 56.13 90.56
  L 56.18 97.01
  C 56.19 97.37 56.39 97.67 56.68 97.73
  Q 57.15 97.84 57.18 97.00
  Q 57.25 94.38 57.25 90.79
  C 57.25 90.32 57.59 89.92 58.05 89.84
  Q 60.68 89.38 59.93 88.75
  C 59.73 88.59 59.40 88.53 59.01 88.57
  Q 57.04 88.78 53.50 88.50
  Q 52.46 88.42 52.60 88.99
  C 52.64 89.18 52.93 89.36 53.31 89.43
  L 55.73 89.87
  C 55.96 89.92 56.12 90.21 56.13 90.56"
/>
<path stroke="#ffabab" vector-effect="non-scaling-stroke" d="
  M 74.58 94.57
  Q 77.55 94.52 78.00 96.69
  C 78.07 97.06 78.23 97.35 78.45 97.52
  Q 79.50 98.33 79.07 96.73
  Q 78.03 92.92 76.44 89.31
  Q 75.57 87.35 74.82 89.30
  L 71.75 97.25
  Q 70.94 99.35 72.31 97.56
  Q 73.23 96.37 73.56 95.33
  C 73.70 94.89 74.11 94.58 74.58 94.57"
/>
<path stroke="#ffabab" vector-effect="non-scaling-stroke" d="
  M 92.73 95.22
  C 92.99 94.50 93.96 94.35 94.54 94.94
  L 97.07 97.50
  Q 97.65 98.09 97.67 97.29
  Q 97.68 96.91 97.25 96.50
  Q 95.98 95.31 94.98 93.45
  C 94.83 93.17 94.86 92.84 95.06 92.60
  L 97.69 89.46
  C 97.88 89.23 97.97 88.99 97.91 88.82
  Q 97.81 88.48 97.31 88.81
  Q 96.08 89.64 93.82 92.37
  C 93.62 92.61 93.29 92.66 93.09 92.48
  Q 92.32 91.80 92.68 90.48
  Q 93.15 88.69 92.30 88.70
  C 92.02 88.71 91.78 88.96 91.73 89.30
  Q 91.01 93.86 91.75 97.25
  Q 92.08 98.77 92.62 97.56
  Q 92.75 97.28 92.71 96.93
  Q 92.57 95.67 92.73 95.22"
/>
<path stroke="#ffabab" vector-effect="non-scaling-stroke" d="
  M 116.09 91.44
  Q 115.80 93.02 116.00 94.00
  Q 116.51 96.47 114.23 97.00
  Q 112.13 97.50 111.80 95.37
  Q 111.39 92.69 111.48 89.92
  Q 111.50 89.46 111.32 89.11
  Q 110.56 87.59 110.25 89.75
  Q 110.03 91.28 110.34 94.17
  Q 110.58 96.40 111.70 97.32
  Q 113.32 98.64 115.67 97.54
  Q 117.26 96.79 117.24 95.11
  L 117.19 89.31
  Q 117.17 87.35 116.25 89.00
  Q 115.85 89.72 116.02 90.46
  Q 116.16 91.05 116.09 91.44"
/>
<path stroke="#ffabab" vector-effect="non-scaling-stroke" d="
  M 38.61 113.53
  Q 38.98 114.86 37.50 115.50
  Q 35.76 116.25 34.69 114.31
  Q 34.36 113.73 33.94 113.79
  C 33.68 113.82 33.56 114.16 33.70 114.46
  Q 35.27 117.89 38.69 116.19
  Q 40.74 115.16 39.92 113.23
  Q 39.50 112.24 38.27 111.58
  Q 37.19 111.01 36.04 110.60
  C 35.67 110.47 35.39 110.27 35.26 110.03
  Q 34.55 108.80 36.47 107.86
  C 37.00 107.60 37.63 107.74 38.00 108.20
  Q 39.45 110.01 39.67 109.41
  Q 39.83 108.95 39.35 108.32
  Q 37.61 106.04 35.06 107.56
  Q 33.14 108.72 33.98 110.34
  Q 34.41 111.18 35.80 111.82
  Q 36.89 112.33 37.98 112.85
  C 38.30 113.00 38.53 113.25 38.61 113.53"
/>
<path stroke="#ffabab" vector-effect="non-scaling-stroke" d="
  M 75.3500 116.5711
  C 77.74 116.42 79.55 114.18 79.3919 111.5650
  C 79.23 108.95 77.16 106.94 74.7700 107.0889
  C 72.38 107.24 70.57 109.48 70.7281 112.0950
  C 70.89 114.71 72.96 116.72 75.3500 116.5711"
/>
<path stroke="#ffabab" vector-effect="non-scaling-stroke" d="
  M 113.42 112.42
  Q 114.64 112.65 115.80 112.20
  Q 116.42 111.96 115.96 111.60
  Q 115.34 111.11 113.65 111.51
  C 112.94 111.68 112.21 111.25 112.02 110.54
  Q 111.29 107.79 113.90 108.14
  Q 114.95 108.28 115.12 108.29
  Q 117.43 108.38 116.20 107.52
  Q 115.78 107.24 115.21 107.22
  Q 113.89 107.17 111.70 107.37
  C 111.19 107.42 110.79 107.83 110.80 108.32
  L 110.89 115.57
  C 110.90 115.86 111.12 116.11 111.42 116.16
  Q 113.29 116.50 115.95 116.11
  Q 117.52 115.88 115.98 115.50
  Q 114.52 115.13 113.00 115.21
  C 112.66 115.23 112.35 115.11 112.17 114.88
  Q 111.06 113.48 112.51 112.55
  C 112.73 112.40 113.06 112.36 113.42 112.42"
/>
<path stroke="#ffabab" vector-effect="non-scaling-stroke" d="
  M 54.73 108.58
  L 55.03 115.25
  C 55.05 115.64 55.16 115.95 55.32 116.11
  Q 55.95 116.70 55.95 115.50
  Q 55.94 113.47 56.14 111.45
  Q 56.20 110.91 55.99 109.57
  Q 55.71 107.80 57.99 108.20
  Q 58.27 108.25 58.49 108.18
  Q 60.18 107.66 58.23 107.48
  Q 55.41 107.23 52.57 107.30
  C 52.15 107.31 51.81 107.46 51.73 107.67
  Q 51.54 108.14 53.72 107.82
  C 54.24 107.75 54.71 108.10 54.73 108.58"
/>
<path stroke="#ffabab" vector-effect="non-scaling-stroke" d="
  M 96.95 107.89
  Q 95.36 107.00 92.51 107.38
  C 92.08 107.44 91.75 107.80 91.75 108.23
  L 91.80 115.69
  C 91.80 116.00 92.03 116.25 92.30 116.23
  Q 92.92 116.17 92.85 115.45
  Q 92.76 114.62 92.76 114.54
  Q 92.93 111.01 95.55 112.74
  Q 96.25 113.19 96.59 114.06
  Q 96.91 114.86 97.16 115.69
  Q 97.27 116.05 97.47 116.24
  Q 98.09 116.86 98.22 115.87
  Q 98.26 115.55 98.11 115.16
  Q 97.52 113.65 97.54 112.05
  C 97.55 111.78 97.65 111.46 97.84 111.15
  Q 99.10 109.09 96.95 107.89"
/>
<path stroke="#f2aeaf" vector-effect="non-scaling-stroke" d="
  M 32.56 54.54
  Q 35.54 54.34 37.13 52.34
  Q 38.65 50.42 38.10 47.88
  Q 37.36 44.47 33.42 44.25
  Q 32.94 44.22 31.12 43.94
  Q 29.07 43.61 29.19 45.94
  Q 29.25 46.99 29.25 47.08
  Q 29.25 50.21 29.25 53.35
  Q 29.25 54.40 29.49 55.12
  Q 30.35 57.68 31.83 55.00
  C 31.98 54.74 32.25 54.57 32.56 54.54"
/>
<path stroke="#f2aeaf" vector-effect="non-scaling-stroke" d="
  M 23.75 47.06
  Q 24.04 49.81 23.32 52.46
  C 23.24 52.78 23.04 53.05 22.77 53.22
  Q 20.20 54.84 18.46 52.47
  C 18.24 52.17 17.96 51.97 17.71 51.94
  Q 16.60 51.79 16.50 53.25
  Q 16.35 55.33 19.25 56.00
  Q 23.18 56.91 25.01 54.36
  Q 26.01 52.96 26.16 49.91
  Q 26.27 47.73 26.24 45.24
  C 26.23 44.67 25.76 44.21 25.19 44.23
  Q 18.99 44.43 23.22 46.36
  C 23.52 46.49 23.72 46.76 23.75 47.06"
/>
<path stroke="#f2aeaf" vector-effect="non-scaling-stroke" d="
  M 87.84 49.58
  C 87.84 45.00 84.13 41.29 79.55 41.29
  C 74.97 41.29 71.26 45.00 71.26 49.58
  C 71.26 54.16 74.97 57.87 79.55 57.87
  C 84.13 57.87 87.84 54.16 87.84 49.58"
/>
<path stroke="#f2aeaf" vector-effect="non-scaling-stroke" d="
  M 57.04 46.94
  L 56.99 42.50
  C 56.99 42.17 56.83 41.88 56.57 41.74
  Q 55.27 41.07 53.99 41.79
  C 53.74 41.93 53.59 42.23 53.59 42.57
  L 53.59 56.69
  C 53.59 57.03 53.75 57.32 54.00 57.44
  Q 55.27 58.06 56.56 57.48
  C 56.83 57.36 57.00 57.07 57.00 56.75
  L 57.00 51.26
  C 57.00 50.84 57.34 50.50 57.76 50.50
  L 63.38 50.50
  C 63.88 50.50 64.28 50.93 64.29 51.47
  L 64.38 56.81
  C 64.39 57.12 64.59 57.41 64.89 57.52
  Q 66.08 57.96 67.25 57.42
  C 67.52 57.30 67.69 57.01 67.69 56.68
  L 67.69 42.56
  C 67.69 42.23 67.53 41.93 67.27 41.78
  Q 65.99 41.05 64.73 41.78
  C 64.47 41.93 64.31 42.23 64.30 42.57
  L 64.20 47.19
  C 64.19 47.45 63.96 47.66 63.69 47.65
  L 57.56 47.44
  C 57.27 47.43 57.05 47.21 57.04 46.94"
/>
<path stroke="#f2aeaf" vector-effect="non-scaling-stroke" d="
  M 98.10 41.86
  Q 95.13 41.18 92.05 41.72
  C 91.76 41.77 91.56 42.02 91.55 42.31
  L 91.51 56.88
  C 91.50 57.38 91.92 57.78 92.42 57.76
  Q 94.43 57.70 96.30 57.61
  Q 98.63 57.49 100.03 56.74
  Q 104.78 54.20 101.28 48.91
  C 101.11 48.66 101.09 48.33 101.23 48.05
  Q 102.22 45.87 101.31 44.05
  Q 100.49 42.40 98.10 41.86"
/>
<path stroke="#f2aeaf" vector-effect="non-scaling-stroke" d="
  M 112.91 41.84
  Q 109.91 41.11 106.81 41.71
  C 106.52 41.77 106.30 42.02 106.29 42.31
  Q 106.09 48.58 106.40 54.84
  Q 106.40 54.93 106.31 56.27
  Q 106.18 58.22 109.06 57.69
  Q 110.59 57.41 112.15 57.53
  Q 115.31 57.77 116.84 54.67
  Q 118.43 51.44 116.12 49.10
  C 115.91 48.88 115.85 48.56 115.98 48.30
  Q 117.13 45.89 116.08 43.96
  Q 115.23 42.40 112.91 41.84"
/>
<path stroke="#f2aeaf" vector-effect="non-scaling-stroke" d="
  M 127.80 48.76
  Q 126.59 46.76 125.35 44.78
  Q 125.30 44.70 124.44 43.01
  Q 123.20 40.54 120.27 41.74
  C 120.03 41.83 119.94 42.13 120.08 42.36
  L 126.01 52.26
  Q 126.90 53.75 126.50 55.52
  Q 125.98 57.81 128.48 57.74
  C 129.03 57.73 129.47 57.30 129.50 56.75
  Q 129.57 55.52 129.68 54.30
  Q 129.80 53.07 130.36 51.95
  Q 132.70 47.24 135.57 42.80
  C 135.91 42.27 135.60 41.56 134.98 41.45
  Q 133.18 41.13 132.15 42.86
  Q 130.35 45.89 128.35 48.78
  C 128.21 48.97 127.92 48.96 127.80 48.76"
/>
<path stroke="#f2aeaf" vector-effect="non-scaling-stroke" d="
  M 84.38 49.63
  C 84.38 46.98 82.23 44.83 79.58 44.83
  C 76.93 44.83 74.78 46.98 74.78 49.63
  C 74.78 52.28 76.93 54.43 79.58 54.43
  C 82.23 54.43 84.38 52.28 84.38 49.63"
/>
<path stroke="#f2aeaf" vector-effect="non-scaling-stroke" d="
  M 97.31 44.94
  Q 94.04 43.75 95.09 47.03
  C 95.19 47.33 95.44 47.55 95.74 47.57
  Q 96.80 47.65 97.76 47.18
  C 98.06 47.03 98.26 46.76 98.30 46.45
  Q 98.43 45.35 97.31 44.94"
/>
<path stroke="#f2aeaf" vector-effect="non-scaling-stroke" d="
  M 96.46 50.42
  Q 94.44 50.40 94.81 53.53
  C 94.89 54.19 95.50 54.65 96.16 54.55
  Q 100.29 53.90 98.73 51.70
  Q 97.84 50.43 96.46 50.42"
/>
<path stroke="#f2aeaf" vector-effect="non-scaling-stroke" d="
  M 113.0276 46.5139
  C 113.20 45.73 112.58 44.92 111.6285 44.7052
  C 110.68 44.49 109.77 44.96 109.5924 45.7461
  C 109.42 46.53 110.04 47.34 110.9915 47.5548
  C 111.94 47.77 112.85 47.30 113.0276 46.5139"
/>
<path stroke="#f2aeaf" vector-effect="non-scaling-stroke" d="
  M 113.08 50.95
  Q 108.92 49.04 109.82 53.85
  C 109.87 54.16 110.11 54.41 110.41 54.48
  Q 112.58 54.99 113.71 53.55
  Q 115.05 51.85 113.08 50.95"
/>
<path stroke="#f2aeaf" vector-effect="non-scaling-stroke" d="
  M 34.31 46.69
  Q 31.78 45.73 31.66 47.65
  Q 31.63 48.15 31.83 49.84
  Q 32.34 54.30 35.69 50.19
  Q 37.54 47.91 34.31 46.69"
/>
<path stroke="#ffabab" vector-effect="non-scaling-stroke" d="
  M 36.8108 97.1198
  C 38.54 97.10 39.92 95.34 39.8998 93.1872
  C 39.88 91.03 38.46 89.30 36.7292 89.3202
  C 35.00 89.34 33.62 91.10 33.6402 93.2528
  C 33.66 95.41 35.08 97.14 36.8108 97.1198"
/>
<path stroke="#ffabab" vector-effect="non-scaling-stroke" d="
  M 76.37 93.35
  Q 76.80 91.98 75.85 90.86
  C 75.67 90.65 75.35 90.66 75.18 90.87
  Q 73.73 92.71 75.72 93.63
  C 75.98 93.75 76.28 93.62 76.37 93.35"
/>
<path stroke="#ffabab" vector-effect="non-scaling-stroke" d="
  M 75.2513 115.7031
  C 76.98 115.60 78.28 113.77 78.1545 111.6238
  C 78.03 109.47 76.52 107.81 74.7887 107.9169
  C 73.06 108.02 71.76 109.85 71.8855 111.9962
  C 72.01 114.15 73.52 115.81 75.2513 115.7031"
/>
<path stroke="#f2aeaf" vector-effect="non-scaling-stroke" d="
  M 96.57 108.79
  Q 92.08 107.03 93.16 110.71
  C 93.25 111.01 93.49 111.25 93.79 111.33
  Q 96.52 112.01 96.96 109.48
  C 97.01 109.19 96.85 108.90 96.57 108.79"
/>
</g>
<path fill="#ff5757" d="
  M 0.00 0.00
  Q 75.00 0.00 150.00 0.00
  Q 150.00 75.00 150.00 150.00
  Q 75.00 150.00 0.00 150.00
  Q 0.00 75.00 0.00 0.00
  Z
  M 43.2233 35.4329
  C 43.22 35.28 43.10 35.16 42.9529 35.1634
  L 12.4529 35.2166
  C 12.30 35.22 12.18 35.34 12.1834 35.4871
  L 12.2367 66.0071
  C 12.24 66.16 12.36 66.28 12.5071 66.2766
  L 43.0071 66.2234
  C 43.16 66.22 43.28 66.10 43.2766 65.9529
  L 43.2233 35.4329
  Z
  M 138.26 36.14
  C 138.26 35.92 138.09 35.75 137.87 35.75
  L 50.39 35.75
  C 50.17 35.75 50.00 35.92 50.00 36.14
  L 50.00 65.00
  C 50.00 65.22 50.17 65.39 50.39 65.39
  L 137.87 65.39
  C 138.09 65.39 138.26 65.22 138.26 65.00
  L 138.26 36.14
  Z
  M 36.5930 98.0268
  C 38.98 98.11 41.00 96.02 41.0971 93.3587
  C 41.19 90.69 39.34 88.46 36.9470 88.3732
  C 34.56 88.29 32.54 90.38 32.4429 93.0413
  C 32.35 95.71 34.20 97.94 36.5930 98.0268
  Z
  M 56.13 90.56
  L 56.18 97.01
  C 56.19 97.37 56.39 97.67 56.68 97.73
  Q 57.15 97.84 57.18 97.00
  Q 57.25 94.38 57.25 90.79
  C 57.25 90.32 57.59 89.92 58.05 89.84
  Q 60.68 89.38 59.93 88.75
  C 59.73 88.59 59.40 88.53 59.01 88.57
  Q 57.04 88.78 53.50 88.50
  Q 52.46 88.42 52.60 88.99
  C 52.64 89.18 52.93 89.36 53.31 89.43
  L 55.73 89.87
  C 55.96 89.92 56.12 90.21 56.13 90.56
  Z
  M 74.58 94.57
  Q 77.55 94.52 78.00 96.69
  C 78.07 97.06 78.23 97.35 78.45 97.52
  Q 79.50 98.33 79.07 96.73
  Q 78.03 92.92 76.44 89.31
  Q 75.57 87.35 74.82 89.30
  L 71.75 97.25
  Q 70.94 99.35 72.31 97.56
  Q 73.23 96.37 73.56 95.33
  C 73.70 94.89 74.11 94.58 74.58 94.57
  Z
  M 92.73 95.22
  C 92.99 94.50 93.96 94.35 94.54 94.94
  L 97.07 97.50
  Q 97.65 98.09 97.67 97.29
  Q 97.68 96.91 97.25 96.50
  Q 95.98 95.31 94.98 93.45
  C 94.83 93.17 94.86 92.84 95.06 92.60
  L 97.69 89.46
  C 97.88 89.23 97.97 88.99 97.91 88.82
  Q 97.81 88.48 97.31 88.81
  Q 96.08 89.64 93.82 92.37
  C 93.62 92.61 93.29 92.66 93.09 92.48
  Q 92.32 91.80 92.68 90.48
  Q 93.15 88.69 92.30 88.70
  C 92.02 88.71 91.78 88.96 91.73 89.30
  Q 91.01 93.86 91.75 97.25
  Q 92.08 98.77 92.62 97.56
  Q 92.75 97.28 92.71 96.93
  Q 92.57 95.67 92.73 95.22
  Z
  M 116.09 91.44
  Q 115.80 93.02 116.00 94.00
  Q 116.51 96.47 114.23 97.00
  Q 112.13 97.50 111.80 95.37
  Q 111.39 92.69 111.48 89.92
  Q 111.50 89.46 111.32 89.11
  Q 110.56 87.59 110.25 89.75
  Q 110.03 91.28 110.34 94.17
  Q 110.58 96.40 111.70 97.32
  Q 113.32 98.64 115.67 97.54
  Q 117.26 96.79 117.24 95.11
  L 117.19 89.31
  Q 117.17 87.35 116.25 89.00
  Q 115.85 89.72 116.02 90.46
  Q 116.16 91.05 116.09 91.44
  Z
  M 38.61 113.53
  Q 38.98 114.86 37.50 115.50
  Q 35.76 116.25 34.69 114.31
  Q 34.36 113.73 33.94 113.79
  C 33.68 113.82 33.56 114.16 33.70 114.46
  Q 35.27 117.89 38.69 116.19
  Q 40.74 115.16 39.92 113.23
  Q 39.50 112.24 38.27 111.58
  Q 37.19 111.01 36.04 110.60
  C 35.67 110.47 35.39 110.27 35.26 110.03
  Q 34.55 108.80 36.47 107.86
  C 37.00 107.60 37.63 107.74 38.00 108.20
  Q 39.45 110.01 39.67 109.41
  Q 39.83 108.95 39.35 108.32
  Q 37.61 106.04 35.06 107.56
  Q 33.14 108.72 33.98 110.34
  Q 34.41 111.18 35.80 111.82
  Q 36.89 112.33 37.98 112.85
  C 38.30 113.00 38.53 113.25 38.61 113.53
  Z
  M 75.3500 116.5711
  C 77.74 116.42 79.55 114.18 79.3919 111.5650
  C 79.23 108.95 77.16 106.94 74.7700 107.0889
  C 72.38 107.24 70.57 109.48 70.7281 112.0950
  C 70.89 114.71 72.96 116.72 75.3500 116.5711
  Z
  M 113.42 112.42
  Q 114.64 112.65 115.80 112.20
  Q 116.42 111.96 115.96 111.60
  Q 115.34 111.11 113.65 111.51
  C 112.94 111.68 112.21 111.25 112.02 110.54
  Q 111.29 107.79 113.90 108.14
  Q 114.95 108.28 115.12 108.29
  Q 117.43 108.38 116.20 107.52
  Q 115.78 107.24 115.21 107.22
  Q 113.89 107.17 111.70 107.37
  C 111.19 107.42 110.79 107.83 110.80 108.32
  L 110.89 115.57
  C 110.90 115.86 111.12 116.11 111.42 116.16
  Q 113.29 116.50 115.95 116.11
  Q 117.52 115.88 115.98 115.50
  Q 114.52 115.13 113.00 115.21
  C 112.66 115.23 112.35 115.11 112.17 114.88
  Q 111.06 113.48 112.51 112.55
  C 112.73 112.40 113.06 112.36 113.42 112.42
  Z
  M 54.73 108.58
  L 55.03 115.25
  C 55.05 115.64 55.16 115.95 55.32 116.11
  Q 55.95 116.70 55.95 115.50
  Q 55.94 113.47 56.14 111.45
  Q 56.20 110.91 55.99 109.57
  Q 55.71 107.80 57.99 108.20
  Q 58.27 108.25 58.49 108.18
  Q 60.18 107.66 58.23 107.48
  Q 55.41 107.23 52.57 107.30
  C 52.15 107.31 51.81 107.46 51.73 107.67
  Q 51.54 108.14 53.72 107.82
  C 54.24 107.75 54.71 108.10 54.73 108.58
  Z
  M 96.95 107.89
  Q 95.36 107.00 92.51 107.38
  C 92.08 107.44 91.75 107.80 91.75 108.23
  L 91.80 115.69
  C 91.80 116.00 92.03 116.25 92.30 116.23
  Q 92.92 116.17 92.85 115.45
  Q 92.76 114.62 92.76 114.54
  Q 92.93 111.01 95.55 112.74
  Q 96.25 113.19 96.59 114.06
  Q 96.91 114.86 97.16 115.69
  Q 97.27 116.05 97.47 116.24
  Q 98.09 116.86 98.22 115.87
  Q 98.26 115.55 98.11 115.16
  Q 97.52 113.65 97.54 112.05
  C 97.55 111.78 97.65 111.46 97.84 111.15
  Q 99.10 109.09 96.95 107.89
  Z"
/>
<path fill="#ffffff" d="
  M 43.2766 65.9529
  C 43.28 66.10 43.16 66.22 43.0071 66.2234
  L 12.5071 66.2766
  C 12.36 66.28 12.24 66.16 12.2367 66.0071
  L 12.1834 35.4871
  C 12.18 35.34 12.30 35.22 12.4529 35.2166
  L 42.9529 35.1634
  C 43.10 35.16 43.22 35.28 43.2233 35.4329
  L 43.2766 65.9529
  Z
  M 32.56 54.54
  Q 35.54 54.34 37.13 52.34
  Q 38.65 50.42 38.10 47.88
  Q 37.36 44.47 33.42 44.25
  Q 32.94 44.22 31.12 43.94
  Q 29.07 43.61 29.19 45.94
  Q 29.25 46.99 29.25 47.08
  Q 29.25 50.21 29.25 53.35
  Q 29.25 54.40 29.49 55.12
  Q 30.35 57.68 31.83 55.00
  C 31.98 54.74 32.25 54.57 32.56 54.54
  Z
  M 23.75 47.06
  Q 24.04 49.81 23.32 52.46
  C 23.24 52.78 23.04 53.05 22.77 53.22
  Q 20.20 54.84 18.46 52.47
  C 18.24 52.17 17.96 51.97 17.71 51.94
  Q 16.60 51.79 16.50 53.25
  Q 16.35 55.33 19.25 56.00
  Q 23.18 56.91 25.01 54.36
  Q 26.01 52.96 26.16 49.91
  Q 26.27 47.73 26.24 45.24
  C 26.23 44.67 25.76 44.21 25.19 44.23
  Q 18.99 44.43 23.22 46.36
  C 23.52 46.49 23.72 46.76 23.75 47.06
  Z"
/>
<path fill="#ffffff" d="
  M 138.26 65.00
  C 138.26 65.22 138.09 65.39 137.87 65.39
  L 50.39 65.39
  C 50.17 65.39 50.00 65.22 50.00 65.00
  L 50.00 36.14
  C 50.00 35.92 50.17 35.75 50.39 35.75
  L 137.87 35.75
  C 138.09 35.75 138.26 35.92 138.26 36.14
  L 138.26 65.00
  Z
  M 87.84 49.58
  C 87.84 45.00 84.13 41.29 79.55 41.29
  C 74.97 41.29 71.26 45.00 71.26 49.58
  C 71.26 54.16 74.97 57.87 79.55 57.87
  C 84.13 57.87 87.84 54.16 87.84 49.58
  Z
  M 57.04 46.94
  L 56.99 42.50
  C 56.99 42.17 56.83 41.88 56.57 41.74
  Q 55.27 41.07 53.99 41.79
  C 53.74 41.93 53.59 42.23 53.59 42.57
  L 53.59 56.69
  C 53.59 57.03 53.75 57.32 54.00 57.44
  Q 55.27 58.06 56.56 57.48
  C 56.83 57.36 57.00 57.07 57.00 56.75
  L 57.00 51.26
  C 57.00 50.84 57.34 50.50 57.76 50.50
  L 63.38 50.50
  C 63.88 50.50 64.28 50.93 64.29 51.47
  L 64.38 56.81
  C 64.39 57.12 64.59 57.41 64.89 57.52
  Q 66.08 57.96 67.25 57.42
  C 67.52 57.30 67.69 57.01 67.69 56.68
  L 67.69 42.56
  C 67.69 42.23 67.53 41.93 67.27 41.78
  Q 65.99 41.05 64.73 41.78
  C 64.47 41.93 64.31 42.23 64.30 42.57
  L 64.20 47.19
  C 64.19 47.45 63.96 47.66 63.69 47.65
  L 57.56 47.44
  C 57.27 47.43 57.05 47.21 57.04 46.94
  Z
  M 98.10 41.86
  Q 95.13 41.18 92.05 41.72
  C 91.76 41.77 91.56 42.02 91.55 42.31
  L 91.51 56.88
  C 91.50 57.38 91.92 57.78 92.42 57.76
  Q 94.43 57.70 96.30 57.61
  Q 98.63 57.49 100.03 56.74
  Q 104.78 54.20 101.28 48.91
  C 101.11 48.66 101.09 48.33 101.23 48.05
  Q 102.22 45.87 101.31 44.05
  Q 100.49 42.40 98.10 41.86
  Z
  M 112.91 41.84
  Q 109.91 41.11 106.81 41.71
  C 106.52 41.77 106.30 42.02 106.29 42.31
  Q 106.09 48.58 106.40 54.84
  Q 106.40 54.93 106.31 56.27
  Q 106.18 58.22 109.06 57.69
  Q 110.59 57.41 112.15 57.53
  Q 115.31 57.77 116.84 54.67
  Q 118.43 51.44 116.12 49.10
  C 115.91 48.88 115.85 48.56 115.98 48.30
  Q 117.13 45.89 116.08 43.96
  Q 115.23 42.40 112.91 41.84
  Z
  M 127.80 48.76
  Q 126.59 46.76 125.35 44.78
  Q 125.30 44.70 124.44 43.01
  Q 123.20 40.54 120.27 41.74
  C 120.03 41.83 119.94 42.13 120.08 42.36
  L 126.01 52.26
  Q 126.90 53.75 126.50 55.52
  Q 125.98 57.81 128.48 57.74
  C 129.03 57.73 129.47 57.30 129.50 56.75
  Q 129.57 55.52 129.68 54.30
  Q 129.80 53.07 130.36 51.95
  Q 132.70 47.24 135.57 42.80
  C 135.91 42.27 135.60 41.56 134.98 41.45
  Q 133.18 41.13 132.15 42.86
  Q 130.35 45.89 128.35 48.78
  C 128.21 48.97 127.92 48.96 127.80 48.76
  Z"
/>
<path fill="#e45d5e" d="
  M 87.84 49.58
  C 87.84 54.16 84.13 57.87 79.55 57.87
  C 74.97 57.87 71.26 54.16 71.26 49.58
  C 71.26 45.00 74.97 41.29 79.55 41.29
  C 84.13 41.29 87.84 45.00 87.84 49.58
  Z
  M 84.38 49.63
  C 84.38 46.98 82.23 44.83 79.58 44.83
  C 76.93 44.83 74.78 46.98 74.78 49.63
  C 74.78 52.28 76.93 54.43 79.58 54.43
  C 82.23 54.43 84.38 52.28 84.38 49.63
  Z"
/>
<path fill="#e45d5e" d="
  M 57.56 47.44
  L 63.69 47.65
  C 63.96 47.66 64.19 47.45 64.20 47.19
  L 64.30 42.57
  C 64.31 42.23 64.47 41.93 64.73 41.78
  Q 65.99 41.05 67.27 41.78
  C 67.53 41.93 67.69 42.23 67.69 42.56
  L 67.69 56.68
  C 67.69 57.01 67.52 57.30 67.25 57.42
  Q 66.08 57.96 64.89 57.52
  C 64.59 57.41 64.39 57.12 64.38 56.81
  L 64.29 51.47
  C 64.28 50.93 63.88 50.50 63.38 50.50
  L 57.76 50.50
  C 57.34 50.50 57.00 50.84 57.00 51.26
  L 57.00 56.75
  C 57.00 57.07 56.83 57.36 56.56 57.48
  Q 55.27 58.06 54.00 57.44
  C 53.75 57.32 53.59 57.03 53.59 56.69
  L 53.59 42.57
  C 53.59 42.23 53.74 41.93 53.99 41.79
  Q 55.27 41.07 56.57 41.74
  C 56.83 41.88 56.99 42.17 56.99 42.50
  L 57.04 46.94
  C 57.05 47.21 57.27 47.43 57.56 47.44
  Z"
/>
<path fill="#e45d5e" d="
  M 101.31 44.05
  Q 102.22 45.87 101.23 48.05
  C 101.09 48.33 101.11 48.66 101.28 48.91
  Q 104.78 54.20 100.03 56.74
  Q 98.63 57.49 96.30 57.61
  Q 94.43 57.70 92.42 57.76
  C 91.92 57.78 91.50 57.38 91.51 56.88
  L 91.55 42.31
  C 91.56 42.02 91.76 41.77 92.05 41.72
  Q 95.13 41.18 98.10 41.86
  Q 100.49 42.40 101.31 44.05
  Z
  M 97.31 44.94
  Q 94.04 43.75 95.09 47.03
  C 95.19 47.33 95.44 47.55 95.74 47.57
  Q 96.80 47.65 97.76 47.18
  C 98.06 47.03 98.26 46.76 98.30 46.45
  Q 98.43 45.35 97.31 44.94
  Z
  M 96.46 50.42
  Q 94.44 50.40 94.81 53.53
  C 94.89 54.19 95.50 54.65 96.16 54.55
  Q 100.29 53.90 98.73 51.70
  Q 97.84 50.43 96.46 50.42
  Z"
/>
<path fill="#e45d5e" d="
  M 116.08 43.96
  Q 117.13 45.89 115.98 48.30
  C 115.85 48.56 115.91 48.88 116.12 49.10
  Q 118.43 51.44 116.84 54.67
  Q 115.31 57.77 112.15 57.53
  Q 110.59 57.41 109.06 57.69
  Q 106.18 58.22 106.31 56.27
  Q 106.40 54.93 106.40 54.84
  Q 106.09 48.58 106.29 42.31
  C 106.30 42.02 106.52 41.77 106.81 41.71
  Q 109.91 41.11 112.91 41.84
  Q 115.23 42.40 116.08 43.96
  Z
  M 113.0276 46.5139
  C 113.20 45.73 112.58 44.92 111.6285 44.7052
  C 110.68 44.49 109.77 44.96 109.5924 45.7461
  C 109.42 46.53 110.04 47.34 110.9915 47.5548
  C 111.94 47.77 112.85 47.30 113.0276 46.5139
  Z
  M 113.08 50.95
  Q 108.92 49.04 109.82 53.85
  C 109.87 54.16 110.11 54.41 110.41 54.48
  Q 112.58 54.99 113.71 53.55
  Q 115.05 51.85 113.08 50.95
  Z"
/>
<path fill="#e45d5e" d="
  M 128.35 48.78
  Q 130.35 45.89 132.15 42.86
  Q 133.18 41.13 134.98 41.45
  C 135.60 41.56 135.91 42.27 135.57 42.80
  Q 132.70 47.24 130.36 51.95
  Q 129.80 53.07 129.68 54.30
  Q 129.57 55.52 129.50 56.75
  C 129.47 57.30 129.03 57.73 128.48 57.74
  Q 125.98 57.81 126.50 55.52
  Q 126.90 53.75 126.01 52.26
  L 120.08 42.36
  C 119.94 42.13 120.03 41.83 120.27 41.74
  Q 123.20 40.54 124.44 43.01
  Q 125.30 44.70 125.35 44.78
  Q 126.59 46.76 127.80 48.76
  C 127.92 48.96 128.21 48.97 128.35 48.78
  Z"
/>
<path fill="#e45d5e" d="
  M 31.83 55.00
  Q 30.35 57.68 29.49 55.12
  Q 29.25 54.40 29.25 53.35
  Q 29.25 50.21 29.25 47.08
  Q 29.25 46.99 29.19 45.94
  Q 29.07 43.61 31.12 43.94
  Q 32.94 44.22 33.42 44.25
  Q 37.36 44.47 38.10 47.88
  Q 38.65 50.42 37.13 52.34
  Q 35.54 54.34 32.56 54.54
  C 32.25 54.57 31.98 54.74 31.83 55.00
  Z
  M 34.31 46.69
  Q 31.78 45.73 31.66 47.65
  Q 31.63 48.15 31.83 49.84
  Q 32.34 54.30 35.69 50.19
  Q 37.54 47.91 34.31 46.69
  Z"
/>
<path fill="#e45d5e" d="
  M 23.22 46.36
  Q 18.99 44.43 25.19 44.23
  C 25.76 44.21 26.23 44.67 26.24 45.24
  Q 26.27 47.73 26.16 49.91
  Q 26.01 52.96 25.01 54.36
  Q 23.18 56.91 19.25 56.00
  Q 16.35 55.33 16.50 53.25
  Q 16.60 51.79 17.71 51.94
  C 17.96 51.97 18.24 52.17 18.46 52.47
  Q 20.20 54.84 22.77 53.22
  C 23.04 53.05 23.24 52.78 23.32 52.46
  Q 24.04 49.81 23.75 47.06
  C 23.72 46.76 23.52 46.49 23.22 46.36
  Z"
/>
<path fill="#ffffff" d="
  M 97.31 44.94
  Q 98.43 45.35 98.30 46.45
  C 98.26 46.76 98.06 47.03 97.76 47.18
  Q 96.80 47.65 95.74 47.57
  C 95.44 47.55 95.19 47.33 95.09 47.03
  Q 94.04 43.75 97.31 44.94
  Z"
/>
<circle fill="#ffffff" cx="79.58" cy="49.63" r="4.80"/>
<ellipse fill="#ffffff" cx="0.00" cy="0.00" transform="translate(111.31,46.13) rotate(12.6)" rx="1.76" ry="1.46"/>
<path fill="#ffffff" d="
  M 34.31 46.69
  Q 37.54 47.91 35.69 50.19
  Q 32.34 54.30 31.83 49.84
  Q 31.63 48.15 31.66 47.65
  Q 31.78 45.73 34.31 46.69
  Z"
/>
<path fill="#ffffff" d="
  M 98.73 51.70
  Q 100.29 53.90 96.16 54.55
  C 95.50 54.65 94.89 54.19 94.81 53.53
  Q 94.44 50.40 96.46 50.42
  Q 97.84 50.43 98.73 51.70
  Z"
/>
<path fill="#ffffff" d="
  M 113.08 50.95
  Q 115.05 51.85 113.71 53.55
  Q 112.58 54.99 110.41 54.48
  C 110.11 54.41 109.87 54.16 109.82 53.85
  Q 108.92 49.04 113.08 50.95
  Z"
/>
<path fill="#ffffff" d="
  M 36.5930 98.0268
  C 34.20 97.94 32.35 95.71 32.4429 93.0413
  C 32.54 90.38 34.56 88.29 36.9470 88.3732
  C 39.34 88.46 41.19 90.69 41.0971 93.3587
  C 41.00 96.02 38.98 98.11 36.5930 98.0268
  Z
  M 36.8108 97.1198
  C 38.54 97.10 39.92 95.34 39.8998 93.1872
  C 39.88 91.03 38.46 89.30 36.7292 89.3202
  C 35.00 89.34 33.62 91.10 33.6402 93.2528
  C 33.66 95.41 35.08 97.14 36.8108 97.1198
  Z"
/>
<path fill="#ffffff" d="
  M 55.73 89.87
  L 53.31 89.43
  C 52.93 89.36 52.64 89.18 52.60 88.99
  Q 52.46 88.42 53.50 88.50
  Q 57.04 88.78 59.01 88.57
  C 59.40 88.53 59.73 88.59 59.93 88.75
  Q 60.68 89.38 58.05 89.84
  C 57.59 89.92 57.25 90.32 57.25 90.79
  Q 57.25 94.38 57.18 97.00
  Q 57.15 97.84 56.68 97.73
  C 56.39 97.67 56.19 97.37 56.18 97.01
  L 56.13 90.56
  C 56.12 90.21 55.96 89.92 55.73 89.87
  Z"
/>
<path fill="#ffffff" d="
  M 74.58 94.57
  C 74.11 94.58 73.70 94.89 73.56 95.33
  Q 73.23 96.37 72.31 97.56
  Q 70.94 99.35 71.75 97.25
  L 74.82 89.30
  Q 75.57 87.35 76.44 89.31
  Q 78.03 92.92 79.07 96.73
  Q 79.50 98.33 78.45 97.52
  C 78.23 97.35 78.07 97.06 78.00 96.69
  Q 77.55 94.52 74.58 94.57
  Z
  M 76.37 93.35
  Q 76.80 91.98 75.85 90.86
  C 75.67 90.65 75.35 90.66 75.18 90.87
  Q 73.73 92.71 75.72 93.63
  C 75.98 93.75 76.28 93.62 76.37 93.35
  Z"
/>
<path fill="#ffffff" d="
  M 92.73 95.22
  Q 92.57 95.67 92.71 96.93
  Q 92.75 97.28 92.62 97.56
  Q 92.08 98.77 91.75 97.25
  Q 91.01 93.86 91.73 89.30
  C 91.78 88.96 92.02 88.71 92.30 88.70
  Q 93.15 88.69 92.68 90.48
  Q 92.32 91.80 93.09 92.48
  C 93.29 92.66 93.62 92.61 93.82 92.37
  Q 96.08 89.64 97.31 88.81
  Q 97.81 88.48 97.91 88.82
  C 97.97 88.99 97.88 89.23 97.69 89.46
  L 95.06 92.60
  C 94.86 92.84 94.83 93.17 94.98 93.45
  Q 95.98 95.31 97.25 96.50
  Q 97.68 96.91 97.67 97.29
  Q 97.65 98.09 97.07 97.50
  L 94.54 94.94
  C 93.96 94.35 92.99 94.50 92.73 95.22
  Z"
/>
<path fill="#ffffff" d="
  M 116.02 90.46
  Q 115.85 89.72 116.25 89.00
  Q 117.17 87.35 117.19 89.31
  L 117.24 95.11
  Q 117.26 96.79 115.67 97.54
  Q 113.32 98.64 111.70 97.32
  Q 110.58 96.40 110.34 94.17
  Q 110.03 91.28 110.25 89.75
  Q 110.56 87.59 111.32 89.11
  Q 111.50 89.46 111.48 89.92
  Q 111.39 92.69 111.80 95.37
  Q 112.13 97.50 114.23 97.00
  Q 116.51 96.47 116.00 94.00
  Q 115.80 93.02 116.09 91.44
  Q 116.16 91.05 116.02 90.46
  Z"
/>
<ellipse fill="#ff5757" cx="0.00" cy="0.00" transform="translate(36.77,93.22) rotate(89.4)" rx="3.90" ry="3.13"/>
<path fill="#ff5757" d="
  M 75.72 93.63
  Q 73.73 92.71 75.18 90.87
  C 75.35 90.66 75.67 90.65 75.85 90.86
  Q 76.80 91.98 76.37 93.35
  C 76.28 93.62 75.98 93.75 75.72 93.63
  Z"
/>
<path fill="#ffffff" d="
  M 37.98 112.85
  Q 36.89 112.33 35.80 111.82
  Q 34.41 111.18 33.98 110.34
  Q 33.14 108.72 35.06 107.56
  Q 37.61 106.04 39.35 108.32
  Q 39.83 108.95 39.67 109.41
  Q 39.45 110.01 38.00 108.20
  C 37.63 107.74 37.00 107.60 36.47 107.86
  Q 34.55 108.80 35.26 110.03
  C 35.39 110.27 35.67 110.47 36.04 110.60
  Q 37.19 111.01 38.27 111.58
  Q 39.50 112.24 39.92 113.23
  Q 40.74 115.16 38.69 116.19
  Q 35.27 117.89 33.70 114.46
  C 33.56 114.16 33.68 113.82 33.94 113.79
  Q 34.36 113.73 34.69 114.31
  Q 35.76 116.25 37.50 115.50
  Q 38.98 114.86 38.61 113.53
  C 38.53 113.25 38.30 113.00 37.98 112.85
  Z"
/>
<path fill="#ffffff" d="
  M 75.3500 116.5711
  C 72.96 116.72 70.89 114.71 70.7281 112.0950
  C 70.57 109.48 72.38 107.24 74.7700 107.0889
  C 77.16 106.94 79.23 108.95 79.3919 111.5650
  C 79.55 114.18 77.74 116.42 75.3500 116.5711
  Z
  M 75.2513 115.7031
  C 76.98 115.60 78.28 113.77 78.1545 111.6238
  C 78.03 109.47 76.52 107.81 74.7887 107.9169
  C 73.06 108.02 71.76 109.85 71.8855 111.9962
  C 72.01 114.15 73.52 115.81 75.2513 115.7031
  Z"
/>
<path fill="#ffffff" d="
  M 112.51 112.55
  Q 111.06 113.48 112.17 114.88
  C 112.35 115.11 112.66 115.23 113.00 115.21
  Q 114.52 115.13 115.98 115.50
  Q 117.52 115.88 115.95 116.11
  Q 113.29 116.50 111.42 116.16
  C 111.12 116.11 110.90 115.86 110.89 115.57
  L 110.80 108.32
  C 110.79 107.83 111.19 107.42 111.70 107.37
  Q 113.89 107.17 115.21 107.22
  Q 115.78 107.24 116.20 107.52
  Q 117.43 108.38 115.12 108.29
  Q 114.95 108.28 113.90 108.14
  Q 111.29 107.79 112.02 110.54
  C 112.21 111.25 112.94 111.68 113.65 111.51
  Q 115.34 111.11 115.96 111.60
  Q 116.42 111.96 115.80 112.20
  Q 114.64 112.65 113.42 112.42
  C 113.06 112.36 112.73 112.40 112.51 112.55
  Z"
/>
<path fill="#ffffff" d="
  M 54.73 108.58
  C 54.71 108.10 54.24 107.75 53.72 107.82
  Q 51.54 108.14 51.73 107.67
  C 51.81 107.46 52.15 107.31 52.57 107.30
  Q 55.41 107.23 58.23 107.48
  Q 60.18 107.66 58.49 108.18
  Q 58.27 108.25 57.99 108.20
  Q 55.71 107.80 55.99 109.57
  Q 56.20 110.91 56.14 111.45
  Q 55.94 113.47 55.95 115.50
  Q 55.95 116.70 55.32 116.11
  C 55.16 115.95 55.05 115.64 55.03 115.25
  L 54.73 108.58
  Z"
/>
<path fill="#ffffff" d="
  M 96.95 107.89
  Q 99.10 109.09 97.84 111.15
  C 97.65 111.46 97.55 111.78 97.54 112.05
  Q 97.52 113.65 98.11 115.16
  Q 98.26 115.55 98.22 115.87
  Q 98.09 116.86 97.47 116.24
  Q 97.27 116.05 97.16 115.69
  Q 96.91 114.86 96.59 114.06
  Q 96.25 113.19 95.55 112.74
  Q 92.93 111.01 92.76 114.54
  Q 92.76 114.62 92.85 115.45
  Q 92.92 116.17 92.30 116.23
  C 92.03 116.25 91.80 116.00 91.80 115.69
  L 91.75 108.23
  C 91.75 107.80 92.08 107.44 92.51 107.38
  Q 95.36 107.00 96.95 107.89
  Z
  M 96.57 108.79
  Q 92.08 107.03 93.16 110.71
  C 93.25 111.01 93.49 111.25 93.79 111.33
  Q 96.52 112.01 96.96 109.48
  C 97.01 109.19 96.85 108.90 96.57 108.79
  Z"
/>
<ellipse fill="#ff5757" cx="0.00" cy="0.00" transform="translate(75.02,111.81) rotate(86.6)" rx="3.90" ry="3.14"/>
<path fill="#e45d5e" d="
  M 96.57 108.79
  C 96.85 108.90 97.01 109.19 96.96 109.48
  Q 96.52 112.01 93.79 111.33
  C 93.49 111.25 93.25 111.01 93.16 110.71
  Q 92.08 107.03 96.57 108.79
  Z"
/>
</svg>
